<?xml version="1.0" standalone="no"?>
<!DOCTYPE svg PUBLIC "-//W3C//DTD SVG 20010904//EN"
 "http://www.w3.org/TR/2001/REC-SVG-20010904/DTD/svg10.dtd">
<svg version="1.0" xmlns="http://www.w3.org/2000/svg"
 width="300.000000pt" height="300.000000pt" viewBox="0 0 300.000000 300.000000"
 preserveAspectRatio="xMidYMid meet">
<metadata>
Created by potrace 1.14, written by Peter Selinger 2001-2017
</metadata>
<g transform="translate(0.000000,300.000000) scale(0.100000,-0.100000)"
fill="#000000" stroke="none">
<path d="M261 1841 c-11 -7 -15 -33 -16 -96 -2 -100 6 -115 66 -115 45 0 50
-11 46 -100 l-2 -55 -58 -3 c-53 -3 -56 -4 -47 -23 9 -16 22 -19 79 -19 48 0
72 4 81 15 15 18 15 193 -1 211 -6 7 -29 14 -52 16 l-42 3 -3 68 -3 69 53 -3
c52 -3 54 -1 50 31 -2 13 -132 13 -151 1z"/>
<path d="M500 1640 l0 -210 84 0 c63 0 85 4 89 14 8 21 -2 26 -55 26 -31 0
-48 4 -49 13 -1 6 -2 41 -3 77 l-1 65 45 5 c32 4 46 10 48 23 3 14 -4 17 -45
17 l-49 0 2 63 c1 34 2 65 3 69 0 4 24 8 53 10 40 2 52 7 54 21 2 15 -8 17
-87 17 l-89 0 0 -210z"/>
<path d="M758 1839 c-16 -9 -18 -30 -18 -197 0 -133 4 -192 12 -200 7 -7 43
-12 90 -12 71 0 78 2 78 20 0 18 -7 20 -55 20 -30 0 -56 3 -56 8 -4 21 -5 309
-1 320 3 7 24 12 59 12 46 0 54 3 51 18 -3 14 -16 17 -73 19 -39 2 -78 -2 -87
-8z"/>
<path d="M990 1640 l0 -210 29 0 c16 0 31 6 33 13 3 6 4 56 3 110 -1 53 1 94
4 89 3 -5 13 -11 22 -14 9 -4 23 -33 33 -70 33 -120 37 -128 68 -128 33 0 34
1 7 93 -29 101 -29 100 -8 120 15 14 19 33 19 97 0 105 -5 110 -121 110 l-89
0 0 -210z m145 110 c2 -74 -1 -80 -44 -80 l-38 0 3 68 c1 37 3 68 3 70 1 2 18
2 38 0 l37 -3 1 -55z"/>
<path d="M1280 1640 l0 -210 84 0 c63 0 85 4 89 14 8 21 -2 26 -54 26 -28 0
-49 5 -51 13 -2 6 -4 41 -4 77 l1 65 48 3 c39 3 48 6 45 20 -2 12 -16 18 -48
22 l-45 5 -1 55 c0 77 1 80 56 80 32 0 50 5 53 14 9 23 -2 26 -90 26 l-83 0 0
-210z"/>
<path d="M1499 1848 c-10 -34 -6 -38 37 -38 l44 0 0 -190 0 -190 30 0 c17 0
30 5 31 13 0 6 1 92 1 189 l1 177 41 3 c29 2 42 8 44 21 3 15 -7 17 -112 17
-64 0 -116 -1 -117 -2z"/>
<path d="M1798 1839 c-16 -9 -18 -29 -18 -189 0 -212 -1 -210 95 -210 46 0 64
4 68 15 5 11 -6 15 -51 17 l-57 3 0 170 0 170 58 3 c50 3 57 5 47 18 -15 17
-115 19 -142 3z"/>
<path d="M2026 1834 c-13 -13 -16 -45 -16 -189 0 -207 -1 -205 96 -205 108 0
104 -8 104 203 0 129 -4 187 -12 195 -19 19 -153 16 -172 -4z m132 -31 c10
-22 9 -304 -2 -321 -9 -14 -82 -16 -91 -2 -8 13 -9 316 -1 329 12 19 84 13 94
-6z"/>
<path d="M2290 1645 l0 -205 25 0 25 0 0 191 0 190 48 -3 47 -3 2 -150 c3
-190 2 -195 -42 -195 -24 0 -35 -5 -35 -15 0 -20 93 -21 112 -2 21 21 18 374
-2 387 -8 6 -52 10 -97 10 l-83 0 0 -205z"/>
<path d="M2570 1645 l0 -205 80 0 c64 0 80 3 80 15 0 12 -13 15 -55 15 l-55 0
0 85 0 85 45 0 c33 0 45 4 45 15 0 11 -12 15 -45 15 l-45 0 0 75 0 75 55 0
c42 0 55 3 55 15 0 12 -16 15 -80 15 l-80 0 0 -205z"/>
<path d="M217 1393 c-4 -3 -7 -10 -7 -15 0 -4 574 -8 1276 -8 1016 0 1275 3
1272 13 -4 9 -268 13 -1270 15 -695 1 -1268 -1 -1271 -5z"/>
<path d="M570 1282 l0 -70 30 2 c35 1 39 11 37 81 -2 49 -3 50 -34 53 l-33 3
0 -69z m46 -2 c0 -34 -5 -50 -13 -50 -9 0 -13 16 -13 50 0 35 4 50 13 50 9 0
13 -15 13 -50z"/>
<path d="M900 1280 c0 -40 4 -70 10 -70 6 0 10 30 10 70 0 40 -4 70 -10 70 -6
0 -10 -30 -10 -70z"/>
<path d="M1519 1348 c-1 -2 -3 -25 -4 -53 -3 -53 3 -91 13 -80 10 9 10 135 1
135 -5 0 -10 -1 -10 -2z"/>
<path d="M1414 1316 c-3 -7 -4 -33 -2 -57 3 -36 6 -43 26 -44 23 -2 31 10 10
17 -19 7 -20 49 -1 64 17 13 17 13 0 14 -10 0 -15 5 -12 10 3 6 1 10 -5 10 -6
0 -13 -6 -16 -14z"/>
<path d="M2180 1276 c0 -59 10 -73 37 -57 15 8 15 10 3 11 -19 0 -25 50 -8 61
8 5 7 12 -5 23 -24 24 -27 20 -27 -38z"/>
<path d="M2240 1268 c0 -39 3 -59 10 -52 15 15 14 114 -2 114 -4 0 -8 -28 -8
-62z"/>
<path d="M658 1275 c-2 -19 -1 -41 4 -48 8 -14 48 -19 48 -6 0 5 -7 9 -15 9
-22 0 -18 18 5 25 13 4 20 15 20 31 0 20 -5 24 -29 24 -26 0 -29 -4 -33 -35z
m38 -2 c-10 -10 -19 5 -10 18 6 11 8 11 12 0 2 -7 1 -15 -2 -18z"/>
<path d="M742 1268 c5 -24 13 -47 18 -52 12 -12 43 59 37 82 -3 12 -7 9 -17
-13 l-13 -30 -6 24 c-4 14 -12 26 -18 28 -8 3 -8 -8 -1 -39z"/>
<path d="M819 1306 c-4 -26 -1 -75 5 -84 3 -6 15 -10 26 -9 23 1 27 17 5 17
-8 0 -15 6 -15 14 0 8 8 13 18 12 12 -1 17 6 17 24 0 20 -6 26 -27 28 -16 2
-28 1 -29 -2z m37 -33 c-10 -10 -19 5 -10 18 6 11 8 11 12 0 2 -7 1 -15 -2
-18z"/>
<path d="M946 1301 c-8 -13 -4 -81 6 -82 50 -7 53 -5 56 44 3 46 3 47 -27 47
-16 0 -32 -4 -35 -9z m42 -41 c0 -16 -4 -30 -9 -30 -5 0 -9 3 -10 8 0 4 -2 17
-5 30 -2 14 1 22 10 22 8 0 13 -12 14 -30z"/>
<path d="M1030 1246 c0 -63 15 -100 22 -54 2 15 10 23 23 23 17 0 20 7 20 45
0 43 -1 45 -32 48 l-33 3 0 -65z m45 17 c-2 -39 -25 -42 -25 -4 0 19 5 31 13
31 9 0 13 -10 12 -27z"/>
<path d="M1117 1273 c1 -21 2 -44 2 -51 2 -29 21 2 21 33 0 50 18 52 22 3 4
-54 23 -52 21 1 -1 31 2 38 13 34 8 -3 14 -13 13 -22 -4 -41 1 -65 12 -54 6 6
9 28 7 49 l-3 39 -55 3 -55 3 2 -38z"/>
<path d="M1250 1262 c0 -46 2 -49 25 -49 14 0 25 3 25 8 0 5 -7 9 -16 9 -9 0
-14 6 -11 13 2 6 10 12 18 12 8 0 14 10 14 25 0 20 -6 26 -27 28 -27 3 -28 2
-28 -46z m40 18 c0 -5 -4 -10 -10 -10 -5 0 -10 5 -10 10 0 6 5 10 10 10 6 0
10 -4 10 -10z"/>
<path d="M1327 1303 c-4 -7 -3 -41 2 -86 1 -5 6 -5 11 -2 6 3 10 24 10 46 0
24 4 38 10 34 6 -3 10 -21 10 -40 0 -19 5 -37 10 -40 6 -4 10 13 10 44 0 50
-1 51 -29 51 -17 0 -32 -3 -34 -7z"/>
<path d="M1559 1283 c-6 -39 1 -74 12 -68 5 4 9 21 9 40 0 19 5 37 10 40 10 6
11 3 14 -47 1 -25 15 -51 17 -32 9 84 6 94 -31 94 -23 0 -28 -5 -31 -27z"/>
<path d="M1647 1303 c-2 -5 -3 -26 -2 -48 1 -34 4 -40 23 -41 12 -1 25 3 28 7
3 5 -1 9 -9 9 -8 0 -17 8 -20 19 -5 22 11 54 24 46 5 -4 9 -1 9 4 0 12 -47 15
-53 4z"/>
<path d="M1719 1308 c0 -2 -2 -20 -3 -41 -2 -41 7 -54 39 -53 15 1 21 10 25
36 8 49 2 60 -31 60 -16 0 -29 -1 -30 -2z m41 -43 c0 -19 -4 -35 -10 -35 -11
0 -14 53 -3 63 11 12 13 8 13 -28z"/>
<path d="M1804 1265 c0 -25 5 -45 11 -45 5 0 10 15 9 33 0 18 7 37 15 44 14
11 12 12 -10 13 -25 0 -26 -3 -25 -45z"/>
<path d="M1864 1243 c1 -42 5 -66 11 -63 6 2 9 10 7 17 -2 7 2 14 8 14 5 1 16
2 23 3 7 1 13 20 15 49 l3 47 -34 0 -34 0 1 -67z m44 17 c0 -18 -4 -30 -12
-30 -11 0 -13 15 -7 63 3 21 18 -6 19 -33z"/>
<path d="M1952 1264 c3 -43 5 -47 30 -50 30 -3 39 15 35 66 -2 20 -8 26 -35
28 l-33 3 3 -47z m43 -1 c-2 -37 -22 -40 -23 -3 0 18 4 30 12 30 8 0 12 -11
11 -27z"/>
<path d="M2039 1298 c-3 -31 3 -74 12 -82 5 -6 9 6 9 32 0 23 5 42 10 42 6 0
10 5 10 10 0 15 -40 12 -41 -2z"/>
<path d="M2100 1300 c0 -6 7 -10 16 -8 10 2 19 -3 21 -9 3 -8 -4 -13 -15 -13
-23 0 -37 -27 -22 -45 6 -7 20 -12 33 -11 19 1 22 7 25 49 3 46 3 47 -27 47
-17 0 -31 -5 -31 -10z m40 -61 c0 -5 -4 -9 -10 -9 -5 0 -10 7 -10 16 0 8 5 12
10 9 6 -3 10 -10 10 -16z"/>
<path d="M2285 1288 c-3 -13 -3 -32 -1 -43 3 -11 5 -23 5 -27 1 -5 11 -6 24
-4 12 3 25 5 30 5 4 1 7 21 7 46 0 43 -1 45 -30 45 -23 0 -31 -5 -35 -22z m45
-29 c0 -38 -22 -35 -26 4 -2 18 2 27 12 27 9 0 14 -11 14 -31z"/>
<path d="M2370 1261 c0 -28 5 -51 10 -51 6 0 10 18 10 40 0 27 4 40 13 40 9 0
13 -12 13 -32 -1 -17 4 -33 11 -35 8 -3 11 9 10 39 -2 41 -4 43 -34 46 l-33 3
0 -50z"/>
</g>
</svg>
